<svg xmlns="http://www.w3.org/2000/svg" xmlns:xlink="http://www.w3.org/1999/xlink" width="354.938" height="168.787" viewBox="0 0 354.938 168.787">
  <defs>
    <clipPath id="clip-path">
      <rect id="Rectangle_54" data-name="Rectangle 54" width="19.794" height="7.405" transform="translate(0 0)" fill="#f5ffbc"/>
    </clipPath>
  </defs>
  <g id="Group_125" data-name="Group 125" transform="translate(1526.425 -3788.407)">
    <path id="Path_123" data-name="Path 123" d="M759.617,42.447c-8.706,7.631-15.991,15.389-13.266,27.786a32.3,32.3,0,0,0,1.673,5.37c2.128,5.194,5.614,9.238,9.991,11.342,15.865-12.982,34.564-15.345,54.179-14.4,26.264,1.26,147.064,3.7,173.361,2.651a167.21,167.21,0,0,0,27.562-3.507c5.246-1.1,10.179-4.072,14.989-6.686a10.684,10.684,0,0,0,4.167-5.106c1.58-3.793-1.229-6.82-5.178-5.954-4.574,1-9.106,2.243-13.716,3.031-14.808,2.529-29.359,1.911-43.332-4.222a39,39,0,0,1-14.066-10.3,8,8,0,0,0-2.232-1.289,50.63,50.63,0,0,1-6.141-3.564,3.32,3.32,0,0,1-.7-3.114,3.2,3.2,0,0,1,2.826-1.33,17.447,17.447,0,0,1,6.254,2.705A6.224,6.224,0,0,0,960.2,37.4c14.144-.111,26.5-5.141,37.448-13.806,6.3-4.985,12.3-10.35,18.6-15.332,6.435-5.089,13.547-8.673,22.083-8.227,1.665.087,3.319.4,4.975.629a13.724,13.724,0,0,1,9.614,6.055c11.392,15.643,12.658,31.98,3.542,49-2.959,5.525-6.6,10.681-9.607,16.184a57.658,57.658,0,0,0-4.843,11.243c-1.819,6.2.632,10.678,6.62,13.03a31,31,0,0,0,17.969,1.874c5.486-1.144,9.72-4.269,13.364-8.986,1.816,6.318,3.584,12.332,3.273,18.472-.4,7.906-1.676,15.772-2.65,23.645-.74,5.976-1.635,11.932-2.375,17.907a24.208,24.208,0,0,0,.079,4.007,5.2,5.2,0,0,0,4.023,5.132c1.76.536,3.562.956,5.274,1.613a7.94,7.94,0,0,1,2.944,1.794c1.692,1.814,1.161,3.571-1.275,4.006a30.322,30.322,0,0,1-18.379-2.317,4.1,4.1,0,0,1-2.541-3.963c-.081-3.347-.156-6.7-.507-10.029a14.475,14.475,0,0,0-1.506-5.24,3.945,3.945,0,0,0-7.114-.165c-2.539,4.354-2.439,9.138-1.464,13.891.153.747,1.321,1.394,2.145,1.871,1.873,1.086,4,1.809,5.673,3.132a4.58,4.58,0,0,1,1.552,3.6c-.132.851-1.829,1.926-2.944,2.082a28.273,28.273,0,0,1-15.913-2.37,4.462,4.462,0,0,1-1.97-3.091c-.5-3.812-.574-7.677-.97-11.5-.694-6.7-1.687-8.091-8.348-9.252-10.132-1.765-20.307-3.4-30.526-4.524-22.75-2.51-140.127-4.544-162.991-3.4-14.947.75-29.861,2.335-44.754,3.894-6.628.694-7.782,2.384-8.3,9.04-.091,1.167-.054,2.343-.1,3.514-.164,4.327.923,7.8,5.855,8.711a2.582,2.582,0,0,1,1.343.645,5.267,5.267,0,0,1,1.618,2.278c.068.406-1.168,1.329-1.941,1.531a32.417,32.417,0,0,1-14.676.266c-1.79-.355-2.27-1.443-2.322-3.243-.148-5.09-.384-10.189-.94-15.247a12.149,12.149,0,0,0-2.211-5.244,5.362,5.362,0,0,0-9.1-.013c-3.285,4.919-3.792,10.474-2.625,16.145.177.863,1.488,1.681,2.454,2.15,1.716.834,3.638,1.252,5.331,2.123a2.882,2.882,0,0,1,1.281,2.18c0,.554-.941,1.389-1.623,1.616-4.907,1.636-9.913,1.879-14.726-.119A5.735,5.735,0,0,1,755.378,161c-1.081-4.293-1.625-8.722-2.685-13.022a52.714,52.714,0,0,0-3.124-9.226c-6.167-13.521-5.8-27.115-.646-40.757a3.713,3.713,0,0,0-.8-4.378C741.47,85.7,736.468,77,736.576,66.245c.118-11.744,11.245-23.457,23.04-23.8" transform="translate(-2263 3788.407)" fill="#2c2733"/>
    <path id="Path_124" data-name="Path 124" d="M1199.564,0c11.99,2.5,20.157,9.109,25.662,19.2,4.2,7.7,6.126,16.067,6.9,24.726C1233.1,54.741,1233.3,65.535,1229.8,76c-2.778,8.3-7.648,14.773-16.74,16.729a28.061,28.061,0,0,1-18.551-2.633c-3.656-1.789-5.105-4.911-4.484-8.955.968-6.3,4.436-11.5,7.563-16.828,2.286-3.9,4.75-7.69,7.016-11.6a44.837,44.837,0,0,0-3.173-50.253c-.5-.661-1-1.324-1.864-2.466" transform="translate(-2405.492 3788.407)" fill="#2c2733"/>
    <g id="Group_62" data-name="Group 62" transform="translate(-1250.052 3804.397)">
      <g id="Group_61" data-name="Group 61" transform="translate(0 0)" clip-path="url(#clip-path)">
        <path id="Path_125" data-name="Path 125" d="M2.042,6.863c-.326.423-.04.057.079-.083.218-.256.447-.5.681-.747A15.876,15.876,0,0,1,5.1,4.051c2.191-1.522,4.813-2.4,7.436-1.515a11.458,11.458,0,0,1,5.218,4.328,1.123,1.123,0,0,0,1.489.391,1.1,1.1,0,0,0,.391-1.49C17.116,2.33,13.548-.539,9.052.087A13.718,13.718,0,0,0,1.624,4.132,15.563,15.563,0,0,0,.162,5.764a1.1,1.1,0,0,0,.391,1.49,1.115,1.115,0,0,0,1.489-.391" transform="translate(0 0)" fill="#f5ffbc"/>
      </g>
    </g>
  </g>
</svg>
