<svg xmlns="http://www.w3.org/2000/svg" xmlns:xlink="http://www.w3.org/1999/xlink" width="1770.488" height="286.016" viewBox="0 0 1770.488 286.016">
  <defs>
    <clipPath id="clip-path">
      <rect id="Rectangle_45" data-name="Rectangle 45" width="1770.488" height="286.016" fill="#2c2733"/>
    </clipPath>
    <clipPath id="clip-path-2">
      <rect id="Rectangle_54" data-name="Rectangle 54" width="36.795" height="13.765" fill="#f5ffbc"/>
    </clipPath>
  </defs>
  <g id="Group_63" data-name="Group 63" transform="translate(-137.379 -4249.781)">
    <g id="Group_58" data-name="Group 58" transform="translate(137.379 4249.781)">
      <g id="Group_57" data-name="Group 57" transform="translate(0 0)" clip-path="url(#clip-path)">
        <path id="Path_123" data-name="Path 123" d="M39.695,72.777c-15,12.84-27.549,25.894-22.854,46.754,2.985,13.261,10.223,23.488,20.093,28.12,27.331-21.845,59.545-25.82,93.336-24.237,45.246,2.121,1394.628,2.658,1439.93.885a294.576,294.576,0,0,0,47.482-5.9c9.038-1.855,17.535-6.851,25.822-11.25,3.112-1.652,5.764-5.277,7.178-8.592,2.721-6.383-2.118-11.476-8.921-10.018-7.88,1.688-15.687,3.774-23.629,5.1-25.51,4.255-50.578,3.215-74.65-7.1A67.121,67.121,0,0,1,1519.25,69.2c-.913-1.033-2.547-1.46-3.846-2.169-3.567-1.948-7.363-3.6-10.58-6-1.185-.883-1.837-3.882-1.207-5.24.59-1.272,3.456-2.6,4.868-2.238,3.771.975,7.771,2.26,10.774,4.552a10.876,10.876,0,0,0,7.258,2.607c24.367-.187,45.646-8.65,64.512-23.231,10.853-8.387,21.186-17.415,32.041-25.8,11.087-8.563,23.338-14.593,38.043-13.843,2.868.146,5.717.68,8.571,1.058,7.1.942,12.293,4.462,16.563,10.188,19.626,26.322,21.806,53.81,6.1,82.455-5.1,9.3-11.376,17.973-16.551,27.232a95.853,95.853,0,0,0-8.343,18.917c-3.133,10.429,1.088,17.968,11.4,21.924,9.988,3.831,20.306,5.323,30.955,3.153,9.451-1.925,16.745-7.183,23.023-15.12,3.129,10.631,6.174,20.751,5.638,31.082-.689,13.3-2.887,26.538-4.565,39.786-1.274,10.055-2.816,20.076-4.091,30.131a39.772,39.772,0,0,0,.136,6.742c.206,4.474,2.568,7.336,6.93,8.635,3.031.9,6.136,1.609,9.086,2.714a13.738,13.738,0,0,1,5.071,3.019c2.914,3.052,2,6.008-2.2,6.741a53.366,53.366,0,0,1-31.661-3.9,6.889,6.889,0,0,1-4.378-6.669c-.139-5.631-.269-11.282-.874-16.876a23.931,23.931,0,0,0-2.594-8.818c-2.8-5.093-9.293-5.238-12.255-.278-4.375,7.327-4.2,15.376-2.521,23.373.264,1.257,2.276,2.345,3.7,3.148,3.227,1.827,6.9,3.044,9.772,5.269,1.625,1.259,2.973,4.166,2.673,6.062-.227,1.433-3.151,3.241-5.071,3.5a49.747,49.747,0,0,1-27.414-3.987c-1.644-.737-3.139-3.309-3.394-5.2-.863-6.413-.989-12.917-1.672-19.359-1.2-11.273-2.906-13.615-14.381-15.568-17.454-2.97-34.984-5.715-52.588-7.613-39.191-4.224-1382.677-4.072-1422.066-2.143-25.75,1.262-51.443,3.929-77.1,6.553-11.419,1.168-13.407,4.012-14.3,15.212-.157,1.964-.093,3.942-.169,5.914-.282,7.281,1.59,13.119,10.087,14.658a4.49,4.49,0,0,1,2.313,1.086c1.123,1.155,2.546,2.432,2.787,3.832.118.683-2.012,2.236-3.345,2.576a57.141,57.141,0,0,1-25.283.447c-3.084-.6-3.91-2.429-4-5.456-.255-8.564-.661-17.145-1.619-25.654a20.194,20.194,0,0,0-3.809-8.824A9.355,9.355,0,0,0,54,237.768c-5.66,8.276-6.532,17.624-4.523,27.166.306,1.452,2.564,2.829,4.228,3.619,2.956,1.4,6.267,2.107,9.183,3.572a4.831,4.831,0,0,1,2.206,3.668c0,.933-1.621,2.337-2.8,2.72-8.453,2.753-17.078,3.162-25.369-.2-2.058-.835-3.945-3.751-4.537-6.049-1.862-7.224-2.8-14.675-4.625-21.911a87.289,87.289,0,0,0-5.383-15.524c-10.624-22.751-10-45.625-1.113-68.58,1.212-3.131.743-4.9-1.381-7.366C8.434,145.561-.184,130.916,0,112.821c.2-19.76,19.372-39.469,39.692-40.043" transform="translate(0 2.219)" fill="#2c2733"/>
        <path id="Path_124" data-name="Path 124" d="M1206.561,0c20.655,4.2,34.725,15.327,44.208,32.31,7.234,12.958,10.554,27.035,11.893,41.6,1.673,18.2,2.016,36.358-4.018,53.974-4.786,13.973-13.176,24.857-28.838,28.149-11.094,2.331-21.853.4-31.959-4.43-6.3-3.01-8.795-8.263-7.724-15.068,1.667-10.6,7.641-19.343,13.029-28.315,3.938-6.558,8.184-12.94,12.086-19.518,16.071-27.09,13.931-59.627-5.466-84.557-.865-1.112-1.725-2.228-3.211-4.149" transform="translate(484.931)" fill="#2c2733"/>
      </g>
    </g>
    <g id="Group_62" data-name="Group 62" transform="translate(1752.009 4281.724)">
      <g id="Group_61" data-name="Group 61" transform="translate(0 0)" clip-path="url(#clip-path-2)">
        <path id="Path_125" data-name="Path 125" d="M3.8,12.758c-.606.786-.074.105.146-.154.406-.477.831-.938,1.266-1.388A29.512,29.512,0,0,1,9.484,7.53C13.557,4.7,18.43,3.063,23.307,4.713c4.047,1.369,7.235,4.685,9.7,8.045a2.088,2.088,0,0,0,2.769.726,2.037,2.037,0,0,0,.726-2.769C31.818,4.331,25.185-1,16.827.161,11.527.9,6.786,4.006,3.018,7.681A28.931,28.931,0,0,0,.3,10.715a2.037,2.037,0,0,0,.726,2.769A2.073,2.073,0,0,0,3.8,12.758" transform="translate(0 0)" fill="#f5ffbc"/>
      </g>
    </g>
  </g>
</svg>
