<svg xmlns="http://www.w3.org/2000/svg" width="50.2" height="50.2" viewBox="0 0 50.2 50.2">
  <g id="Grupo_83" data-name="Grupo 83" transform="translate(-796.399 -5446.732)">
    <path id="Caminho_134" data-name="Caminho 134" d="M50.2,25.1A25.1,25.1,0,1,0,21.178,49.895V32.355H14.8V25.1h6.373V19.57c0-6.291,3.747-9.766,9.481-9.766a38.611,38.611,0,0,1,5.619.49v6.177H33.112c-3.118,0-4.09,1.935-4.09,3.92V25.1h6.961L34.87,32.355H29.022V49.895A25.106,25.106,0,0,0,50.2,25.1" transform="translate(796.399 5446.732)" fill="#d8ffe7"/>
    <path id="Caminho_135" data-name="Caminho 135" d="M59.88,48.918l1.113-7.256H54.032V36.954c0-1.985.972-3.92,4.09-3.92h3.165V26.857a38.583,38.583,0,0,0-5.619-.49c-5.733,0-9.481,3.475-9.481,9.765v5.53H39.815v7.256h6.373V66.457a25.374,25.374,0,0,0,7.844,0V48.918Z" transform="translate(771.389 5430.17)" fill="#2c2733"/>
  </g>
</svg>
