<svg xmlns="http://www.w3.org/2000/svg" xmlns:xlink="http://www.w3.org/1999/xlink" width="121.499" height="87.012" viewBox="0 0 121.499 87.012">
  <defs>
    <clipPath id="clip-path">
      <rect id="Ret창ngulo_2" data-name="Ret창ngulo 2" width="121.499" height="87.012" transform="translate(0 0)" fill="#d8ffe7"/>
    </clipPath>
  </defs>
  <g id="Grupo_66" data-name="Grupo 66" transform="translate(0 -0.001)">
    <g id="Grupo_1" data-name="Grupo 1" transform="translate(0 0.001)" clip-path="url(#clip-path)">
      <path id="Caminho_1" data-name="Caminho 1" d="M1296.281,99.763q-1.051.082-2.124.082c-.233,0-.466,0-.7-.009l-.008.032h-.009a27.289,27.289,0,0,1-26.522-25.593h0c-.013-.223-.024-.447-.033-.671,0-.114-.008-.226-.01-.34-.005-.224-.009-.448-.009-.673v-.032a13.564,13.564,0,0,0-1.913-6.969q1.051-.082,2.124-.082c.235,0,.471,0,.706.009a27.289,27.289,0,0,1,26.483,24.944c.019.219.034.438.048.657h0c.014.223.025.447.033.671s.015.461.017.692c0,.1,0,.21,0,.315v.032a13.575,13.575,0,0,0,1.912,6.936" transform="translate(-1174.782 -60.836)" fill="#d8ffe7"/>
      <path id="Caminho_2" data-name="Caminho 2" d="M1150.792,448.6a5.032,5.032,0,0,1,3.513,6.588c-.909,2.826-4.1,5.717-8.031,7.29l-.307-.355a6.5,6.5,0,0,0,1.9-3.294l-.335-.1a5.362,5.362,0,0,1-3.422-6.871,5.079,5.079,0,0,1,6.68-3.255" transform="translate(-1062.291 -416.348)" fill="#d8ffe7"/>
      <path id="Caminho_3" data-name="Caminho 3" d="M25.657,553.625a10.592,10.592,0,0,0-9.4,5.113V547.211H0v38.054H14.575l1.678-4.4a10.592,10.592,0,0,0,9.4,5.113c7.231,0,13.339-5.5,13.339-16.148,0-10.71-6.108-16.2-13.339-16.2M19.135,576.4c-1.9,0-3.156-1.575-3.156-6.634,0-5,1.252-6.522,3.156-6.522s3.151,1.522,3.151,6.581c0,5-1.248,6.576-3.151,6.576" transform="translate(0 -508.202)" fill="#d8ffe7"/>
      <path id="Caminho_4" data-name="Caminho 4" d="M609.209,647.14v20.818a2.178,2.178,0,0,1-1.742.871,1.657,1.657,0,0,1-1.737-1.849V647.14H589.419v21.42c0,6.575,4.08,10.221,10.167,10.221a10.742,10.742,0,0,0,9.624-5.005l1.639,4.3h14.614V647.14Z" transform="translate(-547.401 -601.008)" fill="#d8ffe7"/>
      <path id="Caminho_5" data-name="Caminho 5" d="M1167.093,637.9l-1.681,4.4a10.589,10.589,0,0,0-9.4-5.112c-7.231,0-12.176,5.491-12.176,16.2,0,10.656,4.945,16.145,12.176,16.145a10.592,10.592,0,0,0,9.4-5.11v14.352h16.254V637.9Zm-4.617,22.072c-1.9,0-3.153-1.578-3.153-6.633,0-5,1.251-6.523,3.153-6.523s3.153,1.521,3.153,6.578c0,5-1.249,6.578-3.153,6.578" transform="translate(-1062.292 -591.773)" fill="#d8ffe7"/>
      <path id="Caminho_6" data-name="Caminho 6" d="M312.632,64.5h16.255V75.971a10.781,10.781,0,0,1,9.622-5.056c6.089,0,10.166,3.642,10.166,10.22v21.419H332.366V82.712a1.659,1.659,0,0,0-1.74-1.849,2.042,2.042,0,0,0-1.74.87v20.821H312.632Z" transform="translate(-290.346 -59.902)" fill="#d8ffe7"/>
      <rect id="Ret창ngulo_1" data-name="Ret창ngulo 1" width="16.253" height="30.931" transform="translate(61.808 11.721)" fill="#d8ffe7"/>
      <path id="Caminho_7" data-name="Caminho 7" d="M864.506,8.454a9.286,9.286,0,0,0,4.084.74,16.962,16.962,0,0,0,5.071-.873,12.933,12.933,0,0,0,4.1-2.133A4.335,4.335,0,0,0,879.547,3.4a2.327,2.327,0,0,0-.048-.706l0-.01A3.318,3.318,0,0,0,877.253.537a8.348,8.348,0,0,0-1.931-.448,12.627,12.627,0,0,0-2.241-.067,17.225,17.225,0,0,0-5.061,1.048A11.717,11.717,0,0,0,864.133,3.3a5.1,5.1,0,0,0-1.071,1.324,2.8,2.8,0,0,0-.375,1.467,2.468,2.468,0,0,0,.582,1.452,3.593,3.593,0,0,0,1.238.91" transform="translate(-801.185 -0.002)" fill="#d8ffe7"/>
    </g>
  </g>
</svg>
