<svg id="Grupo_35" data-name="Grupo 35" xmlns="http://www.w3.org/2000/svg" xmlns:xlink="http://www.w3.org/1999/xlink" width="892.671" height="465.359" viewBox="0 0 892.671 465.359">
  <defs>
    <clipPath id="clip-path">
      <rect id="Retângulo_30" data-name="Retângulo 30" width="892.671" height="465.359" fill="#2c2733"/>
    </clipPath>
  </defs>
  <g id="Grupo_34" data-name="Grupo 34" clip-path="url(#clip-path)">
    <path id="Caminho_109" data-name="Caminho 109" d="M93.447,36.573c-.272,3.414-3.065,5.47-6.09,6.517a27.172,27.172,0,0,1-7.021,1.4,28.173,28.173,0,0,1-7.875-.078c-5.974-1.241-9.077-6.983-10.2-12.413v-.039a1.009,1.009,0,0,0,.116-.272v-.039l.039-.039V31.53a3.208,3.208,0,0,0,.272-.5,22.261,22.261,0,0,1,4.655-6.633c5.314-5.159,14.818-6.711,20.443-1.241a18.553,18.553,0,0,1,4.771,8.767,27.045,27.045,0,0,1,.776,3.608,3.015,3.015,0,0,0,.078.621,1.593,1.593,0,0,0,.039.427" transform="translate(179.252 56.772)" fill="#2c2733"/>
    <path id="Caminho_110" data-name="Caminho 110" d="M268.742,133.727c-8.728-2.095-14.353-9.7-16.719-18.038-2.754,2.987-6.517,5.625-8.883,7.564-3.84,3.065-7.681,6.013-11.715,6.556-.349,5.353-.427,10.707-.31,16.06.194,9.543.853,19.4,3.763,28.551,2.289,7.215,6.633,14.314,15.206,12.607,11.017-2.211,17.224-14.2,20.715-23.741a85.083,85.083,0,0,0,5.547-28.822,27.82,27.82,0,0,1-7.6-.737m-14,.233c-2.172,6.013-3.026,12.646-4.151,18.93-.776,4.577-1.552,9.194-2.25,13.849a2.414,2.414,0,0,1-2.987,1.668,2.5,2.5,0,0,1-1.668-2.987c.7-4.616,1.435-9.232,2.25-13.81,1.086-6.284,1.94-12.956,4.151-18.969,1.047-2.909,5.741-1.629,4.655,1.319m14-.233c-8.728-2.095-14.353-9.7-16.719-18.038-2.754,2.987-6.517,5.625-8.883,7.564-3.84,3.065-7.681,6.013-11.715,6.556-.349,5.353-.427,10.707-.31,16.06.194,9.543.853,19.4,3.763,28.551,2.289,7.215,6.633,14.314,15.206,12.607,11.017-2.211,17.224-14.2,20.715-23.741a85.083,85.083,0,0,0,5.547-28.822,27.82,27.82,0,0,1-7.6-.737m-14,.233c-2.172,6.013-3.026,12.646-4.151,18.93-.776,4.577-1.552,9.194-2.25,13.849a2.414,2.414,0,0,1-2.987,1.668,2.5,2.5,0,0,1-1.668-2.987c.7-4.616,1.435-9.232,2.25-13.81,1.086-6.284,1.94-12.956,4.151-18.969,1.047-2.909,5.741-1.629,4.655,1.319m14-.233c-8.728-2.095-14.353-9.7-16.719-18.038-2.754,2.987-6.517,5.625-8.883,7.564-3.84,3.065-7.681,6.013-11.715,6.556-.349,5.353-.427,10.707-.31,16.06.194,9.543.853,19.4,3.763,28.551,2.289,7.215,6.633,14.314,15.206,12.607,11.017-2.211,17.224-14.2,20.715-23.741a85.083,85.083,0,0,0,5.547-28.822,27.82,27.82,0,0,1-7.6-.737m-14,.233c-2.172,6.013-3.026,12.646-4.151,18.93-.776,4.577-1.552,9.194-2.25,13.849a2.414,2.414,0,0,1-2.987,1.668,2.5,2.5,0,0,1-1.668-2.987c.7-4.616,1.435-9.232,2.25-13.81,1.086-6.284,1.94-12.956,4.151-18.969,1.047-2.909,5.741-1.629,4.655,1.319m14-.233c-8.728-2.095-14.353-9.7-16.719-18.038-2.754,2.987-6.517,5.625-8.883,7.564-3.84,3.065-7.681,6.013-11.715,6.556-.349,5.353-.427,10.707-.31,16.06.194,9.543.853,19.4,3.763,28.551,2.289,7.215,6.633,14.314,15.206,12.607,11.017-2.211,17.224-14.2,20.715-23.741a85.083,85.083,0,0,0,5.547-28.822,27.82,27.82,0,0,1-7.6-.737m-14,.233c-2.172,6.013-3.026,12.646-4.151,18.93-.776,4.577-1.552,9.194-2.25,13.849a2.414,2.414,0,0,1-2.987,1.668,2.5,2.5,0,0,1-1.668-2.987c.7-4.616,1.435-9.232,2.25-13.81,1.086-6.284,1.94-12.956,4.151-18.969,1.047-2.909,5.741-1.629,4.655,1.319m14-.233c-8.728-2.095-14.353-9.7-16.719-18.038-2.754,2.987-6.517,5.625-8.883,7.564-3.84,3.065-7.681,6.013-11.715,6.556-.349,5.353-.427,10.707-.31,16.06.194,9.543.853,19.4,3.763,28.551,2.289,7.215,6.633,14.314,15.206,12.607,11.017-2.211,17.224-14.2,20.715-23.741a85.083,85.083,0,0,0,5.547-28.822,27.82,27.82,0,0,1-7.6-.737m-14,.233c-2.172,6.013-3.026,12.646-4.151,18.93-.776,4.577-1.552,9.194-2.25,13.849a2.414,2.414,0,0,1-2.987,1.668,2.5,2.5,0,0,1-1.668-2.987c.7-4.616,1.435-9.232,2.25-13.81,1.086-6.284,1.94-12.956,4.151-18.969,1.047-2.909,5.741-1.629,4.655,1.319m14-.233c-8.728-2.095-14.353-9.7-16.719-18.038-2.754,2.987-6.517,5.625-8.883,7.564-3.84,3.065-7.681,6.013-11.715,6.556-.349,5.353-.427,10.707-.31,16.06.194,9.543.853,19.4,3.763,28.551,2.289,7.215,6.633,14.314,15.206,12.607,11.017-2.211,17.224-14.2,20.715-23.741a85.083,85.083,0,0,0,5.547-28.822,27.82,27.82,0,0,1-7.6-.737m-14,.233c-2.172,6.013-3.026,12.646-4.151,18.93-.776,4.577-1.552,9.194-2.25,13.849a2.414,2.414,0,0,1-2.987,1.668,2.5,2.5,0,0,1-1.668-2.987c.7-4.616,1.435-9.232,2.25-13.81,1.086-6.284,1.94-12.956,4.151-18.969,1.047-2.909,5.741-1.629,4.655,1.319m14-.233c-8.728-2.095-14.353-9.7-16.719-18.038-2.754,2.987-6.517,5.625-8.883,7.564-3.84,3.065-7.681,6.013-11.715,6.556-.349,5.353-.427,10.707-.31,16.06.194,9.543.853,19.4,3.763,28.551,2.289,7.215,6.633,14.314,15.206,12.607,11.017-2.211,17.224-14.2,20.715-23.741a85.083,85.083,0,0,0,5.547-28.822,27.82,27.82,0,0,1-7.6-.737m-14,.233c-2.172,6.013-3.026,12.646-4.151,18.93-.776,4.577-1.552,9.194-2.25,13.849a2.414,2.414,0,0,1-2.987,1.668,2.5,2.5,0,0,1-1.668-2.987c.7-4.616,1.435-9.232,2.25-13.81,1.086-6.284,1.94-12.956,4.151-18.969,1.047-2.909,5.741-1.629,4.655,1.319M869.4,377.883s-128.4,17.068-151.676-15.9-18.232-56.248-67.886-122.97S474.106,199.828,442.3,196.725c-28.512-2.793-77.623-47.365-87.476-56.52l-.039.039a8.388,8.388,0,0,1-3.569,1.9c-6.9,1.746-10.163-6.323-11.366-11.6-1.823-7.952-1.94-16.37-1.823-24.478.194-15.633,1.823-31.189,3.724-46.667.349-3.065,5.2-3.1,4.81,0-1.9,15.749-3.53,31.615-3.685,47.52-.078,7.293,0,14.78,1.552,21.917.7,3.065,1.668,6.556,3.685,8.224a2.025,2.025,0,0,0,2.289.272c.194-.194,1.086-.737,1.086-.621a2.427,2.427,0,0,1,3.259.233h.039c8.922-8.534,49.731-47.986,48.335-56.985-1.552-10.086-55.472-63.231-95.04-72.153S237.863.05,237.863.05s-38.4,19.784-57.024,25.6-13.965,25.6-6.983,45a248.775,248.775,0,0,0,16.681,36.076s.776,1.94,3.879,2.328c0,0,6.207,60.9,9.7,75.644,0,0-18.62,15.517-23.663,46.162s-9.7,105.9-9.7,105.9-4.655,27.93-70.213,39.956-90.773,25.6-98.919,44.223,17.068,11.25,17.068,11.25,6.207,4.927,12.142,1.047c4.5-2.909,13.577-6.633,17.805-8.3V424.9a2.091,2.091,0,0,1,.543-2.56,23.011,23.011,0,0,1,4.965-3.181c13.887-7.138,30.1-10.28,45.309-13.034,41-7.37,82.976-9.349,124.561-10.241,3.142-.078,3.142,4.771,0,4.849-26.922.582-53.843,1.784-80.648,4.384-24.943,2.405-50.546,5.508-74.519,13.344a76.148,76.148,0,0,0-13.15,5.392c-.931.5-1.823,1.047-2.715,1.629-.155.078-.233.116-.272.194v-.039c-.039,0-.039,0-.078.078l-.039.039a2.434,2.434,0,0,1-3.879-.737c-6.827,3.3-27.116,14.663-24.206,32.779,0,0,3.1,1.94,10.474,2.327,0,0,9.7,9.31,25.6,3.1,0,0,25.991.776,62.067-6.207s196.675-10.086,196.675-10.086,17.961-5.935,16.409-22.887c0,0,97.251,8.418,143.8-19.008l53.8-3.1s-9.077,13.694-5.974,30.258l34.68,2.832s8.263,3.879,29.482,1.047c21.18-2.832,75.761-4.655,75.761-4.655s19.9-1.552,18.892-13.189c-1.047-11.638,2.056-27.154,2.056-27.154s52.757,41.507,151.288,23.663,29.87-36.852,29.87-36.852M271.535,77.634a26.232,26.232,0,0,1,5.9,14.935c.039.194.039.388.078.582v.194a5.666,5.666,0,0,1-.116.853c-.659,5.082-4.345,8.418-9.077,10.2a33.481,33.481,0,0,1-9.582,1.784c-3.259.194-6.75.31-9.853-.776-6.789-2.328-10.978-9.155-12.142-15.943-.31-1.862.659-3.491,1.474-5.082a26.073,26.073,0,0,1,7.215-8.573c7.642-5.741,19.629-5.78,26.107,1.823m-47.4-31.693a27.634,27.634,0,0,1,2.095-2.677c2.793-3.259,6.517-5.935,10.823-6.478,6.866-.815,12.1,4.694,15.517,9.931,1.707,2.638-2.483,5.082-4.19,2.483-1.823-2.832-4.073-5.741-7.254-7.1a1.92,1.92,0,0,1-.5-.155,3.22,3.22,0,0,0-.815-.233,1.369,1.369,0,0,0-.543-.116h-.039c-.039,0-.31-.039-.388-.039a10.142,10.142,0,0,0-1.552.078c-.078,0-.194,0-.233.039-.194.039-.427.116-.621.155a6.684,6.684,0,0,0-.815.272c-.078,0-.155.078-.233.078a.48.48,0,0,0-.116.078,7.093,7.093,0,0,0-1.086.543,10.952,10.952,0,0,0-1.125.7c-.116.078-.465.349-.465.349a1.642,1.642,0,0,0-.272.194,22.13,22.13,0,0,0-3.142,3.181,2.963,2.963,0,0,0-.31.427,2.133,2.133,0,0,0-.272.349,4.089,4.089,0,0,0-.272.427c-1.668,2.6-5.858.155-4.19-2.483m87.2,72.463c-7.8,7.06-18.969,13.849-30.18,15.633.194,12.53-3.1,25.719-8.34,36.969-4.733,10.2-13.073,20.831-25.331,21.142-9.349.233-14.508-8.03-17.107-15.943-3.3-10.008-4-20.948-4.151-31.383-.078-5.159,0-10.357.388-15.556a13.238,13.238,0,0,1-3.918-2.444c-6.052-5.2-9.31-13.577-11.987-20.87a119.412,119.412,0,0,1-4.539-15.012c-.7-3.026,4-4.306,4.694-1.28,2.366,10.357,5.78,21.917,12.219,30.452,1.59,2.095,3.763,4.616,6.517,5.082,4.228.737,8.418-4,11.25-6.323a51.094,51.094,0,0,0,8.612-8.263,13.235,13.235,0,0,0,1.435-2.25c.582-2.832,4.577-1.9,4.771.659.7,9.039,6.129,18.775,15.711,20.288a27.989,27.989,0,0,0,6.246.233l1.28-.116c10.668-1.2,21.529-7.72,29.016-14.469,2.289-2.056,5.741,1.358,3.414,3.452m5.508-53.959a2.486,2.486,0,0,1-2.987-1.707,25.43,25.43,0,0,0-2.638-5.353,12.734,12.734,0,0,0-1.28-1.668c-.272-.233-.5-.5-.776-.776-.078-.039-.349-.272-.5-.388a11.04,11.04,0,0,0-1.435-.892.294.294,0,0,0-.155-.078.135.135,0,0,0-.078-.039c-.039-.039-.039-.039-.078-.039-.272-.078-.5-.155-.737-.233s-.5-.116-.737-.194a.682.682,0,0,0-.233-.039h-.039c-.5-.039-.97-.039-1.435-.039a2.64,2.64,0,0,0-.582.078c-.116,0-.31.039-.388.039-.427.078-.853.194-1.28.31-.427.155-.892.31-1.319.465h-.078l-.039.039c-.039,0-.039.039-.078.039a4.31,4.31,0,0,1-.621.272,18.611,18.611,0,0,0-2.095,1.241c-.349.194-.659.427-1.009.659-.078.078-.155.116-.233.194h-.039l-.039.078c-.039.039-.039.039-.078.039-.465.388-1.009.815-1.435,1.241-2.211,2.172-5.664-1.241-3.414-3.452a23.041,23.041,0,0,1,2.6-2.134c3.258-2.405,7.409-4.306,11.56-3.918,7.176.659,11.094,7.1,13.344,13.267a2.467,2.467,0,0,1-1.668,2.987M658.872,404.261a191.87,191.87,0,0,1-37.512-10.784c-19.9-7.72-39.49-18.465-53.921-34.486-17.417-19.357-22.538-43.641-18.62-69.011,3.3-21.18,14.586-40.654,34.525-49.886,8.689-4,18.969-6.633,28.59-6.09,3.1.155,3.142,5,0,4.849-10.551-.582-21.956,2.715-31.034,7.991-20.676,12.064-28.046,35.766-28.551,58.537-.543,23.508,9.853,43.8,27.542,58.964,21.879,18.736,51.981,30.529,80.3,35.262,3.065.5,1.746,5.159-1.319,4.655M252.022,115.689c-2.754,2.987-6.517,5.625-8.883,7.564-3.84,3.065-7.681,6.013-11.715,6.556-.349,5.353-.427,10.707-.31,16.06.194,9.543.853,19.4,3.763,28.551,2.289,7.215,6.633,14.314,15.206,12.607,11.017-2.211,17.224-14.2,20.715-23.741a85.083,85.083,0,0,0,5.547-28.822,27.82,27.82,0,0,1-7.6-.737c-8.728-2.095-14.353-9.7-16.719-18.038m2.715,18.271c-2.172,6.013-3.026,12.646-4.151,18.93-.776,4.577-1.552,9.194-2.25,13.849a2.414,2.414,0,0,1-2.987,1.668,2.5,2.5,0,0,1-1.668-2.987c.7-4.616,1.435-9.232,2.25-13.81,1.086-6.284,1.94-12.956,4.151-18.969,1.047-2.909,5.741-1.629,4.655,1.319m14-.233c-8.728-2.095-14.353-9.7-16.719-18.038-2.754,2.987-6.517,5.625-8.883,7.564-3.84,3.065-7.681,6.013-11.715,6.556-.349,5.353-.427,10.707-.31,16.06.194,9.543.853,19.4,3.763,28.551,2.289,7.215,6.633,14.314,15.206,12.607,11.017-2.211,17.224-14.2,20.715-23.741a85.083,85.083,0,0,0,5.547-28.822,27.82,27.82,0,0,1-7.6-.737m-14,.233c-2.172,6.013-3.026,12.646-4.151,18.93-.776,4.577-1.552,9.194-2.25,13.849a2.414,2.414,0,0,1-2.987,1.668,2.5,2.5,0,0,1-1.668-2.987c.7-4.616,1.435-9.232,2.25-13.81,1.086-6.284,1.94-12.956,4.151-18.969,1.047-2.909,5.741-1.629,4.655,1.319m14-.233c-8.728-2.095-14.353-9.7-16.719-18.038-2.754,2.987-6.517,5.625-8.883,7.564-3.84,3.065-7.681,6.013-11.715,6.556-.349,5.353-.427,10.707-.31,16.06.194,9.543.853,19.4,3.763,28.551,2.289,7.215,6.633,14.314,15.206,12.607,11.017-2.211,17.224-14.2,20.715-23.741a85.083,85.083,0,0,0,5.547-28.822,27.82,27.82,0,0,1-7.6-.737m-14,.233c-2.172,6.013-3.026,12.646-4.151,18.93-.776,4.577-1.552,9.194-2.25,13.849a2.414,2.414,0,0,1-2.987,1.668,2.5,2.5,0,0,1-1.668-2.987c.7-4.616,1.435-9.232,2.25-13.81,1.086-6.284,1.94-12.956,4.151-18.969,1.047-2.909,5.741-1.629,4.655,1.319m14-.233c-8.728-2.095-14.353-9.7-16.719-18.038-2.754,2.987-6.517,5.625-8.883,7.564-3.84,3.065-7.681,6.013-11.715,6.556-.349,5.353-.427,10.707-.31,16.06.194,9.543.853,19.4,3.763,28.551,2.289,7.215,6.633,14.314,15.206,12.607,11.017-2.211,17.224-14.2,20.715-23.741a85.083,85.083,0,0,0,5.547-28.822,27.82,27.82,0,0,1-7.6-.737m-14,.233c-2.172,6.013-3.026,12.646-4.151,18.93-.776,4.577-1.552,9.194-2.25,13.849a2.414,2.414,0,0,1-2.987,1.668,2.5,2.5,0,0,1-1.668-2.987c.7-4.616,1.435-9.232,2.25-13.81,1.086-6.284,1.94-12.956,4.151-18.969,1.047-2.909,5.741-1.629,4.655,1.319m14-.233c-8.728-2.095-14.353-9.7-16.719-18.038-2.754,2.987-6.517,5.625-8.883,7.564-3.84,3.065-7.681,6.013-11.715,6.556-.349,5.353-.427,10.707-.31,16.06.194,9.543.853,19.4,3.763,28.551,2.289,7.215,6.633,14.314,15.206,12.607,11.017-2.211,17.224-14.2,20.715-23.741a85.083,85.083,0,0,0,5.547-28.822,27.82,27.82,0,0,1-7.6-.737m-14,.233c-2.172,6.013-3.026,12.646-4.151,18.93-.776,4.577-1.552,9.194-2.25,13.849a2.414,2.414,0,0,1-2.987,1.668,2.5,2.5,0,0,1-1.668-2.987c.7-4.616,1.435-9.232,2.25-13.81,1.086-6.284,1.94-12.956,4.151-18.969,1.047-2.909,5.741-1.629,4.655,1.319m14-.233c-8.728-2.095-14.353-9.7-16.719-18.038-2.754,2.987-6.517,5.625-8.883,7.564-3.84,3.065-7.681,6.013-11.715,6.556-.349,5.353-.427,10.707-.31,16.06.194,9.543.853,19.4,3.763,28.551,2.289,7.215,6.633,14.314,15.206,12.607,11.017-2.211,17.224-14.2,20.715-23.741a85.083,85.083,0,0,0,5.547-28.822,27.82,27.82,0,0,1-7.6-.737m-14,.233c-2.172,6.013-3.026,12.646-4.151,18.93-.776,4.577-1.552,9.194-2.25,13.849a2.414,2.414,0,0,1-2.987,1.668,2.5,2.5,0,0,1-1.668-2.987c.7-4.616,1.435-9.232,2.25-13.81,1.086-6.284,1.94-12.956,4.151-18.969,1.047-2.909,5.741-1.629,4.655,1.319m14-.233c-8.728-2.095-14.353-9.7-16.719-18.038-2.754,2.987-6.517,5.625-8.883,7.564-3.84,3.065-7.681,6.013-11.715,6.556-.349,5.353-.427,10.707-.31,16.06.194,9.543.853,19.4,3.763,28.551,2.289,7.215,6.633,14.314,15.206,12.607,11.017-2.211,17.224-14.2,20.715-23.741a85.083,85.083,0,0,0,5.547-28.822,27.82,27.82,0,0,1-7.6-.737m-14,.233c-2.172,6.013-3.026,12.646-4.151,18.93-.776,4.577-1.552,9.194-2.25,13.849a2.414,2.414,0,0,1-2.987,1.668,2.5,2.5,0,0,1-1.668-2.987c.7-4.616,1.435-9.232,2.25-13.81,1.086-6.284,1.94-12.956,4.151-18.969,1.047-2.909,5.741-1.629,4.655,1.319m14-.233c-8.728-2.095-14.353-9.7-16.719-18.038-2.754,2.987-6.517,5.625-8.883,7.564-3.84,3.065-7.681,6.013-11.715,6.556-.349,5.353-.427,10.707-.31,16.06.194,9.543.853,19.4,3.763,28.551,2.289,7.215,6.633,14.314,15.206,12.607,11.017-2.211,17.224-14.2,20.715-23.741a85.083,85.083,0,0,0,5.547-28.822,27.82,27.82,0,0,1-7.6-.737m-14,.233c-2.172,6.013-3.026,12.646-4.151,18.93-.776,4.577-1.552,9.194-2.25,13.849a2.414,2.414,0,0,1-2.987,1.668,2.5,2.5,0,0,1-1.668-2.987c.7-4.616,1.435-9.232,2.25-13.81,1.086-6.284,1.94-12.956,4.151-18.969,1.047-2.909,5.741-1.629,4.655,1.319" transform="translate(0.001 0)" fill="#2c2733"/>
    <path id="Caminho_111" data-name="Caminho 111" d="M76.384,14.523h.039l-.078.078c-.039.039-.039.039-.078.039Z" transform="translate(219.59 41.814)" fill="#2c2733"/>
    <path id="Caminho_112" data-name="Caminho 112" d="M79.273,13.871a.2.2,0,0,0-.155-.078c.039,0,.039,0,.078.039a.12.12,0,0,0,.078.039" transform="translate(227.796 39.713)" fill="#2c2733"/>
    <path id="Caminho_113" data-name="Caminho 113" d="M13.646,109.723v.039a.038.038,0,0,0-.039.039h-.039c.039-.078.039-.078.078-.078" transform="translate(39.065 315.913)" fill="#2c2733"/>
  </g>
</svg>
