<svg xmlns="http://www.w3.org/2000/svg" width="50.2" height="50.2" viewBox="0 0 50.2 50.2">
  <g id="Grupo_79" data-name="Grupo 79" transform="translate(-865.65 -5446.732)">
    <path id="Caminho_126" data-name="Caminho 126" d="M473.43,0a25.1,25.1,0,1,1-25.1,25.1A25.1,25.1,0,0,1,473.43,0" transform="translate(417.32 5446.732)" fill="#d8ffe7"/>
    <path id="Caminho_127" data-name="Caminho 127" d="M489.134,27.848c4.22,0,4.719.016,6.386.092a8.741,8.741,0,0,1,2.934.544,5.233,5.233,0,0,1,3,3A8.75,8.75,0,0,1,502,34.417c.076,1.667.092,2.166.092,6.386s-.016,4.72-.092,6.386a8.75,8.75,0,0,1-.544,2.934,5.233,5.233,0,0,1-3,3,8.751,8.751,0,0,1-2.934.544c-1.666.076-2.166.092-6.386.092s-4.72-.016-6.386-.092a8.751,8.751,0,0,1-2.934-.544,5.233,5.233,0,0,1-3-3,8.741,8.741,0,0,1-.544-2.934c-.076-1.667-.092-2.166-.092-6.386s.016-4.72.092-6.386a8.741,8.741,0,0,1,.544-2.934,5.233,5.233,0,0,1,3-3,8.741,8.741,0,0,1,2.934-.544c1.667-.076,2.166-.092,6.386-.092m0-2.848c-4.292,0-4.83.018-6.516.1a11.6,11.6,0,0,0-3.836.734,8.081,8.081,0,0,0-4.622,4.622,11.6,11.6,0,0,0-.734,3.836c-.077,1.686-.1,2.224-.1,6.516s.018,4.83.1,6.516a11.6,11.6,0,0,0,.734,3.836,8.081,8.081,0,0,0,4.622,4.622,11.6,11.6,0,0,0,3.836.734c1.686.077,2.224.1,6.516.1s4.83-.018,6.516-.1a11.6,11.6,0,0,0,3.836-.734,8.08,8.08,0,0,0,4.622-4.622,11.6,11.6,0,0,0,.734-3.836c.077-1.686.1-2.224.1-6.516s-.018-4.83-.1-6.516a11.6,11.6,0,0,0-.734-3.836,8.08,8.08,0,0,0-4.622-4.622,11.6,11.6,0,0,0-3.836-.734c-1.686-.077-2.224-.1-6.516-.1" transform="translate(401.616 5431.029)" fill="#2c2733"/>
    <path id="Caminho_128" data-name="Caminho 128" d="M502.121,45.676a8.115,8.115,0,1,0,8.115,8.115,8.115,8.115,0,0,0-8.115-8.115m0,13.383a5.268,5.268,0,1,1,5.268-5.268,5.268,5.268,0,0,1-5.268,5.268" transform="translate(388.628 5418.041)" fill="#2c2733"/>
    <path id="Caminho_129" data-name="Caminho 129" d="M537.21,41.609a1.9,1.9,0,1,1-1.9-1.9,1.9,1.9,0,0,1,1.9,1.9" transform="translate(363.872 5421.787)" fill="#2c2733"/>
  </g>
</svg>
