<svg xmlns="http://www.w3.org/2000/svg" xmlns:xlink="http://www.w3.org/1999/xlink" width="122" height="87.371" viewBox="0 0 122 87.371">
  <defs>
    <clipPath id="clip-path">
      <rect id="Ret창ngulo_2" data-name="Ret창ngulo 2" width="122" height="87.371" transform="translate(0 0)" fill="#2c2733"/>
    </clipPath>
  </defs>
  <g id="Grupo_18" data-name="Grupo 18" transform="translate(0 -0.001)">
    <g id="Grupo_1" data-name="Grupo 1" transform="translate(0 0.001)" clip-path="url(#clip-path)">
      <path id="Caminho_1" data-name="Caminho 1" d="M1296.41,99.9q-1.056.082-2.133.083c-.234,0-.468,0-.7-.009l-.008.032h-.009a27.4,27.4,0,0,1-26.631-25.7h0c-.013-.224-.024-.448-.033-.673,0-.114-.008-.227-.01-.342-.005-.225-.009-.45-.009-.676v-.032a13.62,13.62,0,0,0-1.921-7q1.056-.082,2.133-.083c.236,0,.473,0,.709.009a27.4,27.4,0,0,1,26.592,25.047c.019.22.034.44.048.659h0c.014.224.025.448.033.673s.015.462.017.695c0,.105,0,.211,0,.316v.032a13.632,13.632,0,0,0,1.92,6.965" transform="translate(-1174.41 -60.817)" fill="#2c2733"/>
      <path id="Caminho_2" data-name="Caminho 2" d="M1150.821,448.6a5.053,5.053,0,0,1,3.527,6.616c-.913,2.837-4.12,5.74-8.064,7.32l-.308-.356a6.527,6.527,0,0,0,1.91-3.307l-.336-.1a5.384,5.384,0,0,1-3.436-6.9,5.1,5.1,0,0,1,6.707-3.268" transform="translate(-1061.955 -416.216)" fill="#2c2733"/>
      <path id="Caminho_3" data-name="Caminho 3" d="M25.762,553.651a10.635,10.635,0,0,0-9.442,5.134V547.211H0v38.211H14.635L16.32,581a10.635,10.635,0,0,0,9.442,5.134c7.261,0,13.394-5.519,13.394-16.214,0-10.754-6.133-16.269-13.394-16.269m-6.549,22.874c-1.911,0-3.169-1.582-3.169-6.662,0-5.021,1.258-6.549,3.169-6.549s3.164,1.528,3.164,6.608c0,5.021-1.253,6.6-3.164,6.6" transform="translate(0 -508.042)" fill="#2c2733"/>
      <path id="Caminho_4" data-name="Caminho 4" d="M609.291,647.14v20.9a2.187,2.187,0,0,1-1.749.875,1.664,1.664,0,0,1-1.744-1.857V647.14H589.419v21.508c0,6.6,4.1,10.263,10.209,10.263a10.786,10.786,0,0,0,9.663-5.026l1.646,4.313h14.674V647.14Z" transform="translate(-547.228 -600.818)" fill="#2c2733"/>
      <path id="Caminho_5" data-name="Caminho 5" d="M1167.188,637.907l-1.687,4.422a10.633,10.633,0,0,0-9.443-5.133c-7.261,0-12.226,5.514-12.226,16.268,0,10.7,4.966,16.211,12.226,16.211a10.636,10.636,0,0,0,9.443-5.131v14.411h16.321V637.907Zm-4.636,22.163c-1.91,0-3.166-1.584-3.166-6.66,0-5.023,1.256-6.55,3.166-6.55s3.166,1.527,3.166,6.6c0,5.021-1.254,6.605-3.166,6.605" transform="translate(-1061.956 -591.585)" fill="#2c2733"/>
      <path id="Caminho_6" data-name="Caminho 6" d="M312.632,64.5h16.322V76.018a10.826,10.826,0,0,1,9.662-5.077c6.114,0,10.208,3.657,10.208,10.263v21.507H332.447V82.787a1.666,1.666,0,0,0-1.747-1.856,2.05,2.05,0,0,0-1.747.874v20.907H312.632Z" transform="translate(-290.254 -59.883)" fill="#2c2733"/>
      <rect id="Ret창ngulo_1" data-name="Ret창ngulo 1" width="16.32" height="31.058" transform="translate(62.063 11.769)" fill="#2c2733"/>
      <path id="Caminho_7" data-name="Caminho 7" d="M864.514,8.489a9.324,9.324,0,0,0,4.1.743,17.031,17.031,0,0,0,5.092-.876,12.987,12.987,0,0,0,4.121-2.142,4.353,4.353,0,0,0,1.789-2.8,2.342,2.342,0,0,0-.048-.709l0-.01A3.332,3.332,0,0,0,877.313.54a8.382,8.382,0,0,0-1.939-.45,12.679,12.679,0,0,0-2.25-.067,17.3,17.3,0,0,0-5.082,1.052,11.766,11.766,0,0,0-3.9,2.24,5.127,5.127,0,0,0-1.076,1.329,2.812,2.812,0,0,0-.377,1.473,2.478,2.478,0,0,0,.585,1.458,3.608,3.608,0,0,0,1.243.914" transform="translate(-800.931 -0.002)" fill="#2c2733"/>
    </g>
  </g>
</svg>
