<svg xmlns="http://www.w3.org/2000/svg" width="22" height="22" viewBox="0 0 22 22">
  <g id="Grupo_40" data-name="Grupo 40" transform="translate(-887.992 -2684.991)">
    <path id="Polígono_1" data-name="Polígono 1" d="M9.174,4.087a2,2,0,0,1,3.652,0l1.018,2.278a2,2,0,0,0,1.564,1.167l2.538.336a2,2,0,0,1,1.142,3.407l-2,1.969a2,2,0,0,0-.563,1.782l.495,2.718a2,2,0,0,1-2.97,2.089L12,18.645a2,2,0,0,0-2,0L7.946,19.832a2,2,0,0,1-2.97-2.089l.495-2.718a2,2,0,0,0-.563-1.782l-2-1.969A2,2,0,0,1,4.054,7.867l2.538-.336A2,2,0,0,0,8.156,6.365Z" transform="translate(887.992 2684.991)" fill="#faff7c"/>
  </g>
</svg>
