<svg xmlns="http://www.w3.org/2000/svg" width="50.2" height="50.2" viewBox="0 0 50.2 50.2">
  <g id="Grupo_80" data-name="Grupo 80" transform="translate(-934.9 -5446.732)">
    <path id="Caminho_136" data-name="Caminho 136" d="M268.52,222.118a25.1,25.1,0,1,1-25.1-25.1,25.1,25.1,0,0,1,25.1,25.1" transform="translate(716.58 5249.714)" fill="#d8ffe7"/>
    <path id="Caminho_137" data-name="Caminho 137" d="M276.013,228.909c0-.146,0-.151-.157-.15a6.887,6.887,0,0,1-1.092-.1c-1.313-.2-5.573-2.433-6.294-6.088a11.059,11.059,0,0,1-.173-1.365c0-.173,0-.173-.173-.176h-.118q-2.5,0-5,0c-.336,0-.289-.042-.289.295q0,10.844,0,21.687a4.525,4.525,0,0,1-.055.8,4.693,4.693,0,0,1-5.582,3.835,6.323,6.323,0,0,1-1.1-.361l-.087-.08c-.12-.1-.254-.184-.383-.274a4.613,4.613,0,0,1,1.04-8.225,4.137,4.137,0,0,1,1.662-.247,4.907,4.907,0,0,1,1.086.167c.123.035.19-.009.2-.139,0-.046,0-.092,0-.138,0-1.3-.048-4.132-.055-4.139,0-.374,0-.747.009-1.121,0-.108-.051-.126-.142-.137a10.578,10.578,0,0,0-2.021-.045,10.23,10.23,0,0,0-8.579,6,10.241,10.241,0,0,0-.421,7.251,10.167,10.167,0,0,0,3.461,4.978,2.426,2.426,0,0,0,.531.366h0l.253.225a5.355,5.355,0,0,0,.854.522,10.33,10.33,0,0,0,12.5-2.51,10.056,10.056,0,0,0,2.463-6.687c.021-3.6,0-7.2.007-10.8,0-.086-.049-.208.045-.251.074-.034.149.064.218.11a13.26,13.26,0,0,0,4.35,1.875,12.294,12.294,0,0,0,2.767.333c.3,0,.335-.015.335-.308,0-1.278-.065-4.773-.065-5.113" transform="translate(698.051 5234.628)" fill="#2c2733"/>
  </g>
</svg>
