<svg xmlns="http://www.w3.org/2000/svg" width="50.2" height="50.2" viewBox="0 0 50.2 50.2">
  <g id="Grupo_82" data-name="Grupo 82" transform="translate(-1073.401 -5446.732)">
    <path id="Caminho_130" data-name="Caminho 130" d="M941.015,25.1A25.1,25.1,0,1,1,915.915,0a25.1,25.1,0,0,1,25.1,25.1" transform="translate(182.586 5446.732)" fill="#d8ffe7" fill-rule="evenodd"/>
    <path id="Caminho_131" data-name="Caminho 131" d="M927.418,61.776c12.259,0,18.963-10.156,18.963-18.963q0-.433-.019-.862a13.569,13.569,0,0,0,3.325-3.451,13.3,13.3,0,0,1-3.827,1.049,6.688,6.688,0,0,0,2.931-3.687,13.36,13.36,0,0,1-4.232,1.618A6.671,6.671,0,0,0,933.2,43.559,18.922,18.922,0,0,1,919.462,36.6a6.67,6.67,0,0,0,2.063,8.9,6.618,6.618,0,0,1-3.019-.834c0,.028,0,.056,0,.085a6.668,6.668,0,0,0,5.347,6.534,6.659,6.659,0,0,1-3.01.114,6.672,6.672,0,0,0,6.226,4.629,13.373,13.373,0,0,1-8.278,2.853,13.528,13.528,0,0,1-1.59-.092,18.867,18.867,0,0,0,10.217,2.994" transform="translate(166.012 5424.512)" fill="#2c2733"/>
  </g>
</svg>
