<svg xmlns="http://www.w3.org/2000/svg" width="50.2" height="50.2" viewBox="0 0 50.2 50.2">
  <g id="Grupo_81" data-name="Grupo 81" transform="translate(-1004.151 -5446.732)">
    <path id="Caminho_132" data-name="Caminho 132" d="M498.53,222.118a25.1,25.1,0,1,1-25.1-25.1,25.1,25.1,0,0,1,25.1,25.1" transform="translate(555.821 5249.714)" fill="#d8ffe7"/>
    <path id="Caminho_133" data-name="Caminho 133" d="M503.6,236.676a4.19,4.19,0,0,0-2.959-2.959c-2.61-.7-13.075-.7-13.075-.7s-10.465,0-13.075.7a4.19,4.19,0,0,0-2.959,2.959,46.732,46.732,0,0,0,0,16.11,4.19,4.19,0,0,0,2.959,2.959c2.61.7,13.075.7,13.075.7s10.465,0,13.075-.7a4.19,4.19,0,0,0,2.959-2.959,46.73,46.73,0,0,0,0-16.11m-19.38,13.075v-10.04l8.695,5.02Z" transform="translate(541.687 5227.101)" fill="#2c2733"/>
  </g>
</svg>
